<svg xmlns="http://www.w3.org/2000/svg" style="display: none;"><symbol id="check" viewBox="0 0 512 512"><title>check</title><polygon style="fill:#0863AD" points="478.609,155.826 478.609,100.174 445.217,100.174 445.217,66.783 411.826,66.783 411.826,33.391 356.174,33.391 356.174,0 155.826,0 155.826,33.391 100.174,33.391 100.174,66.783 66.783,66.783 66.783,100.174 33.391,100.174 33.391,155.826 0.008,155.829 0.008,356.177 33.391,356.177 33.391,411.826 66.783,411.826 66.783,422.957 66.783,445.217 100.174,445.217 100.174,456.348 100.174,478.609 155.826,478.609 155.826,489.739 155.826,512 356.174,512 356.174,489.739 356.174,478.609 411.826,478.609 411.826,456.348 411.826,445.217 445.217,445.217 445.217,422.957 445.217,411.826 478.609,411.826 478.609,356.177 489.746,356.177 489.746,356.174 512,356.174 512,155.826 " data-original="#002C6A" class="" data-old_color="#0863ad"/><g> <polygon style="fill:#299CEF" points="155.826,33.391 100.174,33.391 100.174,66.783 66.783,66.783 66.783,100.174 33.391,100.174 33.391,155.826 0,155.826 0,256 33.391,256 66.783,256 66.783,155.826 100.174,155.826 100.174,100.174 155.826,100.174 155.826,66.783 256,66.783 256,33.391 256,0 155.826,0 " data-original="#006DF3" class="active-path" data-old_color="#299cef"/> <polygon style="fill:#299CEF" points="289.391,0 289.391,33.391 289.391,66.783 322.783,66.783 322.783,33.391 322.783,0 " data-original="#006DF3" class="active-path" data-old_color="#299cef"/> <polygon style="fill:#299CEF" points="0,289.391 0,322.783 33.391,322.783 66.783,322.783 66.783,289.391 33.391,289.391 " data-original="#006DF3" class="active-path" data-old_color="#299cef"/> </g><rect x="100.174" y="33.391" width="55.652" height="33.391" data-original="#000000" class=""/><rect x="66.783" y="66.783" width="33.391" height="33.391" data-original="#000000" class=""/><rect x="33.391" y="100.174" width="33.391" height="55.652" data-original="#000000" class=""/><rect x="33.391" y="356.174" width="33.391" height="55.652" data-original="#000000" class=""/><rect x="66.783" y="411.826" width="33.391" height="33.391" data-original="#000000" class=""/><rect x="100.174" y="445.217" width="55.652" height="33.391" data-original="#000000" class=""/><rect x="155.826" width="200.348" height="33.391" data-original="#000000" class=""/><rect x="155.826" y="478.609" width="200.348" height="33.391" data-original="#000000" class=""/><rect y="155.826" width="33.391" height="200.348" data-original="#000000" class=""/><rect x="356.174" y="33.391" width="55.652" height="33.391" data-original="#000000" class=""/><rect x="411.826" y="66.783" width="33.391" height="33.391" data-original="#000000" class=""/><rect x="445.217" y="100.174" width="33.391" height="55.652" data-original="#000000" class=""/><rect x="445.217" y="356.174" width="33.391" height="55.652" data-original="#000000" class=""/><rect x="411.826" y="411.826" width="33.391" height="33.391" data-original="#000000" class=""/><rect x="356.174" y="445.217" width="55.652" height="33.391" data-original="#000000" class=""/><rect x="478.609" y="155.826" width="33.391" height="200.348" data-original="#000000" class=""/><polygon style="fill:#FFFFFF" points="345.043,133.565 345.043,166.957 311.652,166.957 311.652,200.348 278.261,200.348 278.261,233.739 244.87,233.739 244.87,267.13 211.478,267.13 211.478,300.522 178.087,300.522 178.087,267.13 144.696,267.13 144.696,233.739 100.174,233.739 100.174,311.652 133.565,311.652 133.565,345.043 166.957,345.043 166.957,378.435 222.609,378.435 222.609,345.043 256,345.043 256,311.652 289.391,311.652 289.391,278.261 322.783,278.261 322.783,244.87 356.174,244.87 356.174,211.478 389.565,211.478 389.565,133.565 " data-original="#00CCB2" class="" data-old_color="#ffffff"/></symbol><symbol id="cancel" viewBox="0 0 512 512"><title>cancel</title><polygon style="fill:#0863AD" points="478.609,155.826 478.609,100.174 445.217,100.174 445.217,66.783 411.826,66.783 411.826,33.391 356.174,33.391 356.174,0 155.826,0 155.826,33.391 100.174,33.391 100.174,66.783 66.783,66.783 66.783,100.174 33.391,100.174 33.391,155.826 0.008,155.829 0.008,356.177 33.391,356.177 33.391,411.826 66.783,411.826 66.783,422.957 66.783,445.217 100.174,445.217 100.174,456.348 100.174,478.609 155.826,478.609 155.826,489.739 155.826,512 356.174,512 356.174,489.739 356.174,478.609 411.826,478.609 411.826,456.348 411.826,445.217 445.217,445.217 445.217,422.957 445.217,411.826 478.609,411.826 478.609,356.177 489.746,356.177 489.746,356.174 512,356.174 512,155.826 " data-original="#002C6A" class="active-path" data-old_color="#0863ad"/><g> <polygon style="fill:#299CEF" points="155.826,33.391 100.174,33.391 100.174,66.783 66.783,66.783 66.783,100.174 33.391,100.174 33.391,155.826 0,155.826 0,256 33.391,256 66.783,256 66.783,155.826 100.174,155.826 100.174,100.174 155.826,100.174 155.826,66.783 256,66.783 256,33.391 256,0 155.826,0 " data-original="#006DF3" class="" data-old_color="#299cef"/> <polygon style="fill:#299CEF" points="289.391,0 289.391,33.391 289.391,66.783 322.783,66.783 322.783,33.391 322.783,0 " data-original="#006DF3" class="" data-old_color="#299cef"/> <polygon style="fill:#299CEF" points="0,289.391 0,322.783 33.391,322.783 66.783,322.783 66.783,289.391 33.391,289.391 " data-original="#006DF3" class="" data-old_color="#299cef"/> </g><rect x="100.174" y="33.391" width="55.652" height="33.391" data-original="#000000" class=""/><rect x="66.783" y="66.783" width="33.391" height="33.391" data-original="#000000" class=""/><rect x="33.391" y="100.174" width="33.391" height="55.652" data-original="#000000" class=""/><rect x="33.391" y="356.174" width="33.391" height="55.652" data-original="#000000" class=""/><rect x="66.783" y="411.826" width="33.391" height="33.391" data-original="#000000" class=""/><rect x="100.174" y="445.217" width="55.652" height="33.391" data-original="#000000" class=""/><rect x="155.826" width="200.348" height="33.391" data-original="#000000" class=""/><rect x="155.826" y="478.609" width="200.348" height="33.391" data-original="#000000" class=""/><rect y="155.826" width="33.391" height="200.348" data-original="#000000" class=""/><rect x="356.174" y="33.391" width="55.652" height="33.391" data-original="#000000" class=""/><rect x="411.826" y="66.783" width="33.391" height="33.391" data-original="#000000" class=""/><rect x="445.217" y="100.174" width="33.391" height="55.652" data-original="#000000" class=""/><rect x="445.217" y="356.174" width="33.391" height="55.652" data-original="#000000" class=""/><rect x="411.826" y="411.826" width="33.391" height="33.391" data-original="#000000" class=""/><rect x="356.174" y="445.217" width="55.652" height="33.391" data-original="#000000" class=""/><rect x="478.609" y="155.826" width="33.391" height="200.348" data-original="#000000" class=""/><polygon style="fill:#FFFFFF" points="311.652,122.435 311.652,155.826 278.261,155.826 278.261,189.217 233.739,189.217 233.739,155.826 200.348,155.826 200.348,122.435 122.435,122.435 122.435,166.957 155.826,166.957 155.826,200.348 189.217,200.348 189.217,233.739 222.609,233.739 222.609,267.13 189.217,267.13 189.217,300.522 155.826,300.522 155.826,333.913 122.435,333.913 122.435,345.043 122.435,378.435 200.348,378.435 200.348,345.043 233.739,345.043 233.739,311.652 278.261,311.652 278.261,345.043 311.652,345.043 311.652,378.435 389.565,378.435 389.565,333.913 356.174,333.913 356.174,300.522 322.783,300.522 322.783,267.13 289.391,267.13 289.391,233.739 322.783,233.739 322.783,200.348 356.174,200.348 356.174,166.957 389.565,166.957 389.565,155.826 389.565,122.435 " data-original="#FB0023" class="" data-old_color="#FB0023"/></symbol><symbol id="help" viewBox="0 0 512 512"><title>help</title><polygon style="fill:#FFFFFF" points="478.609,166.957 478.609,100.174 445.217,100.174 445.217,66.783 411.826,66.783 411.826,33.391 345.043,33.391 345.043,0 166.957,0 166.957,33.391 100.174,33.391 100.174,66.783 66.783,66.783 66.783,100.174 33.391,100.174 33.391,166.957 0,166.957 0,345.043 33.391,345.043 33.391,411.826 66.783,411.826 66.783,445.217 100.174,445.217 100.174,478.609 166.957,478.609 166.957,512 345.043,512 345.043,478.609 411.826,478.609 411.826,445.217 445.217,445.217 445.217,411.826 478.609,411.826 478.609,345.043 512,345.043 512,166.957 " data-original="#83C9FF" class="active-path" data-old_color="#83C9FF"/><rect x="66.783" y="66.783" width="33.391" height="33.391" data-original="#000000" class=""/><polygon points="411.826,33.391 345.043,33.391 345.043,0 166.957,0 166.957,33.391 100.174,33.391 100.174,66.783 166.957,66.783 166.957,33.391 345.043,33.391 345.043,66.783 411.826,66.783 411.826,100.174 445.217,100.174 445.217,66.783 411.826,66.783 " data-original="#000000" class=""/><rect x="445.217" y="100.174" width="33.391" height="66.783" data-original="#000000" class=""/><rect x="478.609" y="166.957" width="33.391" height="178.087" data-original="#000000" class=""/><rect x="445.217" y="345.043" width="33.391" height="66.783" data-original="#000000" class=""/><polygon points="33.391,166.957 0,166.957 0,345.043 33.391,345.043 33.391,411.826 66.783,411.826 66.783,445.217 100.174,445.217 100.174,411.826 66.783,411.826 66.783,345.043 33.391,345.043 33.391,166.957 66.783,166.957 66.783,100.174 33.391,100.174 " data-original="#000000" class=""/><polygon points="166.957,478.609 166.957,512 345.043,512 345.043,478.609 411.826,478.609 411.826,445.217 345.043,445.217 345.043,478.609 166.957,478.609 166.957,445.217 100.174,445.217 100.174,478.609 " data-original="#000000" class=""/><rect x="411.826" y="411.826" width="33.391" height="33.391" data-original="#000000" class=""/><rect x="233.739" y="378.435" width="33.391" height="33.391" data-original="#000000" class=""/><rect x="233.739" y="278.261" width="33.391" height="66.783" data-original="#000000" class=""/><rect x="267.13" y="244.87" width="44.522" height="33.391" data-original="#000000" class=""/><rect x="311.652" y="133.565" width="33.391" height="111.304" data-original="#000000" class=""/><rect x="189.217" y="100.174" width="122.435" height="33.391" data-original="#000000" class=""/><rect x="155.826" y="133.565" width="33.391" height="66.783" data-original="#000000" class=""/></symbol><symbol id="star" viewBox="0 0 512 512"><title>star</title><g> <g> <g> <polygon points="0,200.348 0,256 33.391,256 33.391,200.348 133.565,200.348 133.565,166.957 0,166.957 "/> <rect x="133.565" y="133.565" width="33.391" height="33.391"/> </g> </g> </g><g> <g> <rect x="33.391" y="256" width="33.391" height="33.391"/> </g> </g><g> <g> <rect x="200.348" y="33.391" width="33.391" height="55.652"/> </g> </g><g> <g> <rect x="166.957" y="89.044" width="33.391" height="44.522"/> </g> </g><g> <g> <rect x="278.261" y="33.391" width="33.391" height="55.652"/> </g> </g><g> <g> <rect x="311.652" y="89.044" width="33.391" height="44.522"/> </g> </g><g> <g> <rect x="155.826" y="445.217" width="55.652" height="33.391"/> </g> </g><g> <g> <polygon points="100.174,478.609 100.174,289.391 66.783,289.391 66.783,478.609 66.783,489.739 66.783,512 155.826,512 155.826,478.609 "/> </g> </g><g> <g> <rect x="445.217" y="256" width="33.391" height="33.391"/> </g> </g><g> <g> <polygon points="411.826,289.391 411.826,478.609 356.174,478.609 356.174,512 445.217,512 445.217,489.739 445.217,478.609 445.217,289.391 "/> </g> </g><g> <g> <g> <rect x="345.043" y="133.565" width="33.391" height="33.391"/> <polygon points="378.435,166.957 378.435,200.348 478.609,200.348 478.609,256 512,256 512,200.348 512,166.957 "/> </g> </g> </g><g> <g> <rect x="300.522" y="445.217" width="55.652" height="33.391"/> </g> </g><g> <g> <rect x="233.739" width="44.522" height="33.391"/> </g> </g><g> <g> <rect x="211.478" y="411.826" width="89.043" height="33.391"/> </g> </g></symbol><symbol id="undo" viewBox="0 0 512 512"><title>undo</title><polygon points="478.609,200.35 478.609,166.959 478.609,133.568 445.216,133.568 445.216,100.176 478.608,100.176 478.608,66.784 511.999,66.784 511.999,0.001 244.869,0.001 244.869,267.13 311.651,267.13 311.651,233.738 345.043,233.738 345.043,200.347 378.435,200.347 378.435,233.741 411.825,233.741 411.825,345.043 378.434,345.043 378.434,378.435 345.043,378.435 345.043,411.826 166.956,411.826 166.956,378.435 133.565,378.435 133.565,345.043 100.174,345.043 100.174,166.957 133.565,166.957 133.565,66.783 66.782,66.783 66.782,100.174 33.391,100.174 33.391,166.957 0,166.957 0,345.043 33.391,345.043 33.391,411.826 66.782,411.826 66.782,445.217 100.174,445.217 100.174,478.608 166.956,478.608 166.956,511.999 345.043,511.999 345.043,478.608 411.825,478.608 411.825,445.217 445.216,445.217 445.216,411.827 478.608,411.827 478.608,345.046 512,345.046 512,200.35 " fill="#FFFFFF"/></symbol><symbol id="star-1" viewBox="0 0 512 512"><title>star-1</title><polygon points="511.997,166.958 511.997,166.957 478.606,166.957 378.432,166.957 378.432,133.566 345.041,133.566 345.041,89.045 311.65,89.045 311.65,33.393 278.259,33.393 278.259,0.002 233.738,0.002 233.738,33.393 200.347,33.393 200.347,89.045 166.955,89.045 166.955,133.566 133.564,133.566 133.564,166.958 33.391,166.958 33.391,166.957 0,166.957 0,256 0.003,256 33.391,256 33.391,289.391 66.782,289.391 66.782,478.607 66.782,489.738 66.782,511.998 155.825,511.998 155.825,489.738 155.825,478.608 211.477,478.608 211.477,445.217 211.477,445.216 300.52,445.216 300.52,445.217 300.52,478.608 356.172,478.608 356.172,511.998 445.215,511.998 445.215,489.738 445.215,478.607 445.215,289.391 478.606,289.391 478.606,256.001 512,256.001 512,166.958 "/></symbol></svg>